HIERARCHY
ROOT Hips
{
	OFFSET 0.000000 0.000000 0.000000 
	CHANNELS 6 Xposition Yposition Zposition Zrotation Xrotation Yrotation
	JOINT Spine
	{
		OFFSET -0.000000 8.061080 0.000000 
		CHANNELS 3 Zrotation Xrotation Yrotation
		JOINT Spine1
		{
			OFFSET -0.000000 20.532700 0.000000 
			CHANNELS 3 Zrotation Xrotation Yrotation
			JOINT Neck
			{
				OFFSET -0.000000 22.498800 0.000000 
				CHANNELS 3 Zrotation Xrotation Yrotation
				JOINT Head
				{
					OFFSET -0.000000 15.237400 1.966120 
					CHANNELS 3 Zrotation Xrotation Yrotation
					End Site
					{
						OFFSET -0.000000 19.661222 0.000000 
					}
				}
			}
			JOINT LeftShoulder
			{
				OFFSET 3.894670 16.042299 -0.398189 
				CHANNELS 3 Zrotation Xrotation Yrotation
				JOINT LeftArm
				{
					OFFSET 19.709600 0.000000 0.000000 
					CHANNELS 3 Zrotation Xrotation Yrotation
					JOINT LeftForeArm
					{
						OFFSET 25.566900 0.000000 0.000000 
						CHANNELS 3 Zrotation Xrotation Yrotation
						JOINT LeftHand
						{
							OFFSET 25.401899 0.000000 0.000000 
							CHANNELS 3 Zrotation Xrotation Yrotation
							End Site
							{
								OFFSET 14.745918 0.000000 0.000000 
							}
						}
					}
				}
			}
			JOINT RightShoulder
			{
				OFFSET -3.930780 16.042299 -0.398189 
				CHANNELS 3 Zrotation Xrotation Yrotation
				JOINT RightArm
				{
					OFFSET -19.709600 0.000000 0.000000 
					CHANNELS 3 Zrotation Xrotation Yrotation
					JOINT RightForeArm
					{
						OFFSET -25.566900 0.000000 0.000000 
						CHANNELS 3 Zrotation Xrotation Yrotation
						JOINT RightHand
						{
							OFFSET -25.401899 0.000000 0.000000 
							CHANNELS 3 Zrotation Xrotation Yrotation
							End Site
							{
								OFFSET -14.745918 0.000000 0.000000 
							}
						}
					}
				}
			}
		}
	}
	JOINT LeftUpLeg
	{
		OFFSET 9.830590 0.000000 0.000000 
		CHANNELS 3 Zrotation Xrotation Yrotation
		JOINT LeftLeg
		{
			OFFSET -0.000000 -46.474800 0.000000 
			CHANNELS 3 Zrotation Xrotation Yrotation
			JOINT LeftFoot
			{
				OFFSET -0.000000 -30.290499 0.000000 
				CHANNELS 3 Zrotation Xrotation Yrotation
				JOINT LeftToeBase
				{
					OFFSET -0.000000 -6.389880 14.745900 
					CHANNELS 3 Zrotation Xrotation Yrotation
					End Site
					{
						OFFSET -0.000000 0.000000 3.932244 
					}
				}
			}
		}
	}
	JOINT RightUpLeg
	{
		OFFSET -9.830590 0.000000 0.000000 
		CHANNELS 3 Zrotation Xrotation Yrotation
		JOINT RightLeg
		{
			OFFSET -0.000000 -46.474800 0.000000 
			CHANNELS 3 Zrotation Xrotation Yrotation
			JOINT RightFoot
			{
				OFFSET -0.000000 -30.290499 0.000000 
				CHANNELS 3 Zrotation Xrotation Yrotation
				JOINT RightToeBase
				{
					OFFSET -0.000000 -6.389880 14.745900 
					CHANNELS 3 Zrotation Xrotation Yrotation
					End Site
					{
						OFFSET -0.000000 0.000000 3.932244 
					}
				}
			}
		}
	}
}
MOTION
Frames: 17
Frame Time: 0.010000
0.000000 88.355293 0.000000 -1.967168 8.697753 3.301692 1.640897 -15.427864 -1.793600 0.870834 5.607326 -0.715550 0.296537 3.308469 -0.876480 -3.452302 7.303293 -0.196738 6.535347 7.784503 -4.602396 -71.109528 28.570301 -25.578884 -9.908195 -2.975288 -2.755443 5.422947 -2.849441 7.693302 -9.419041 8.607956 -9.997022 52.051964 54.125504 42.255474 3.179760 -8.915461 5.763755 6.218733 -9.243298 -3.161070 7.108863 -5.093827 -7.542543 1.358828 -2.101511 -3.685490 -3.051925 9.198562 18.594419 0.000000 0.000000 0.000000 -5.658403 -5.761525 -6.901622 -0.409834 10.096747 -1.286110 0.000000 0.000000 0.000000 0.000000 0.000000 0.000000 
0.001054 88.354637 0.002315 -1.968876 8.690689 3.304863 1.645737 -15.435035 -1.790377 0.862653 5.614545 -0.714458 0.304524 3.323375 -0.883592 -3.456832 7.276876 -0.202687 6.541022 7.781713 -4.620135 -71.122292 28.564667 -25.556133 -9.904011 -2.983803 -2.741903 5.368289 -2.848584 7.943634 -9.414617 8.615713 -10.000769 52.050148 54.124115 42.264462 3.180991 -8.919672 5.757065 6.178477 -9.245539 -3.147223 7.112689 -5.084362 -7.541244 1.354519 -2.107333 -3.654780 -3.049672 9.199565 18.564796 0.000000 0.000000 0.000000 -5.656913 -5.763034 -6.990276 -0.392037 10.118122 -1.283379 0.000000 0.000000 0.000000 0.000000 0.000000 0.000000 
0.002674 88.353691 0.006474 -1.966974 8.682216 3.307477 1.636019 -15.425203 -1.797422 0.874202 5.598672 -0.716716 0.316458 3.311431 -0.876018 -3.484561 7.300585 -0.186954 6.535391 7.796875 -4.601044 -71.118233 28.567755 -25.597847 -9.881338 -2.810495 -3.265144 4.439628 -2.933236 4.111550 -9.420160 8.617534 -9.995493 52.061478 54.130825 42.246754 3.187059 -8.930966 5.761240 6.094557 -9.254457 -3.137531 7.112210 -5.067517 -7.537797 1.352362 -2.124368 -3.624588 -3.048350 9.207367 18.533869 0.000000 0.000000 0.000000 -5.659043 -5.740014 -6.896792 -0.400364 10.087087 -1.282200 0.000000 0.000000 0.000000 0.000000 0.000000 0.000000 
0.006202 88.352081 0.011113 -1.969151 8.671274 3.312270 1.643375 -15.425999 -1.797909 0.871474 5.602596 -0.717090 0.298336 3.303459 -0.873146 -3.458565 7.305674 -0.191760 6.530334 7.809421 -4.600555 -71.109688 28.582649 -25.615696 -9.868026 -2.821614 -3.265261 4.434140 -2.944586 4.100832 -9.427725 8.610664 -9.996591 52.084293 54.134510 42.226128 3.191003 -8.928599 5.760106 6.057928 -9.250457 -3.122148 7.114997 -5.053340 -7.540351 1.348012 -2.128048 -3.593968 -3.043939 9.202416 18.504904 0.000000 0.000000 0.000000 -5.657688 -5.727244 -6.925033 -0.410833 10.098750 -1.286637 0.000000 0.000000 0.000000 0.000000 0.000000 0.000000 
0.007670 88.351753 0.015042 -1.971096 8.662821 3.317074 1.647011 -15.432547 -1.797097 0.862589 5.608921 -0.716603 0.315077 3.298441 -0.872324 -3.477995 7.310055 -0.184379 6.543126 7.802392 -4.614363 -71.128059 28.573532 -25.595816 -9.869028 -2.821017 -3.275518 4.434950 -2.945027 4.097005 -9.420135 8.618987 -9.996643 52.100193 54.115124 42.212540 3.201824 -8.926832 5.758764 5.985329 -9.246719 -3.112254 7.118297 -5.042005 -7.540444 1.344603 -2.133621 -3.563723 -3.041938 9.203489 18.475084 0.000000 0.000000 0.000000 -5.654882 -5.716453 -6.934240 -0.415359 10.099137 -1.288011 0.000000 0.000000 0.000000 0.000000 0.000000 0.000000 
0.011283 88.351151 0.019347 -1.968662 8.654165 3.319083 1.649381 -15.430252 -1.799272 0.858381 5.600885 -0.717187 0.314285 3.296359 -0.868618 -3.480850 7.316635 -0.179903 6.534294 7.803687 -4.614028 -71.130989 28.578138 -25.588398 -9.860957 -2.824972 -3.272806 4.413947 -2.949712 4.086020 -9.423113 8.621986 -9.991307 52.091267 54.127300 42.217804 3.210023 -8.941051 5.757912 5.929122 -9.259064 -3.097616 7.116049 -5.027622 -7.535148 1.341262 -2.143187 -3.537532 -3.038987 9.207064 18.445938 0.000000 0.000000 0.000000 -5.660284 -5.700813 -6.932982 -0.405845 10.089514 -1.284094 0.000000 0.000000 0.000000 0.000000 0.000000 0.000000 
0.014523 88.349876 0.024439 -1.966835 8.642632 3.322771 1.657785 -15.443063 -1.792589 0.838285 5.625648 -0.714647 0.336406 3.281387 -0.877233 -3.500804 7.317510 -0.181417 6.550821 7.809080 -4.623204 -71.118073 28.557409 -25.597485 -9.913075 -2.993190 -2.752928 5.409096 -2.868019 7.696858 -9.413647 8.619707 -9.999634 52.085590 54.131992 42.223949 3.209599 -8.943378 5.760345 5.874064 -9.260261 -3.103620 7.115683 -5.008992 -7.541360 1.336641 -2.155563 -3.501597 -3.035166 9.210157 18.416180 0.000000 0.000000 0.000000 -5.662881 -5.685976 -6.942716 -0.409531 10.095271 -1.285848 0.000000 0.000000 0.000000 0.000000 0.000000 0.000000 
0.016560 88.349190 0.029520 -1.968569 8.632165 3.325113 1.658048 -15.442026 -1.792275 0.842502 5.622086 -0.714712 0.341208 3.284668 -0.878827 -3.517386 7.310610 -0.179358 6.546163 7.801296 -4.624259 -71.122154 28.581875 -25.590088 -9.902017 -3.005289 -2.747812 5.389389 -2.881191 7.687060 -9.416615 8.622148 -10.000216 52.098156 54.121113 42.207829 3.223607 -8.947949 5.762529 5.815186 -9.263179 -3.086993 7.117807 -4.991812 -7.536191 1.336333 -2.166154 -3.472142 -3.034247 9.212329 18.383869 0.000000 0.000000 0.000000 -5.660722 -5.669802 -6.947717 -0.416738 10.080913 -1.286292 0.000000 0.000000 0.000000 0.000000 0.000000 0.000000 
0.020746 88.348274 0.034533 -1.969301 8.623424 3.328476 1.672378 -15.445404 -1.791655 0.823048 5.620403 -0.714203 0.351236 3.285681 -0.881591 -3.532099 7.310520 -0.177693 6.553036 7.810905 -4.622909 -71.136337 28.561819 -25.585070 -9.897006 -2.997881 -2.746295 5.398376 -2.872873 7.688208 -9.411543 8.621701 -9.993218 52.095203 54.134064 42.202991 3.221604 -8.960875 5.765041 5.767966 -9.274897 -3.088634 7.120304 -4.978629 -7.547737 1.328952 -2.171996 -3.432455 -3.028427 9.210890 18.355587 0.000000 0.000000 0.000000 -5.662392 -5.658895 -6.948387 -0.410713 10.084287 -1.284915 0.000000 0.000000 0.000000 0.000000 0.000000 0.000000 
0.024246 88.347313 0.040274 -1.967065 8.603251 3.329658 1.667916 -15.443939 -1.790622 0.827595 5.633181 -0.713899 0.355194 3.279630 -0.884795 -3.542373 7.307754 -0.178551 6.552411 7.804163 -4.629071 -71.131569 28.576355 -25.592678 -9.907903 -3.019177 -2.690076 5.334075 -2.880618 7.972405 -9.420071 8.612284 -9.986129 52.114597 54.135506 42.184753 3.216907 -8.965530 5.753220 5.754350 -9.277686 -3.070146 7.116018 -4.949318 -7.535779 1.333688 -2.186511 -3.408295 -3.029427 9.215691 18.320889 0.000000 0.000000 0.000000 -5.665586 -5.634656 -6.949345 -0.422009 10.090182 -1.288922 0.000000 0.000000 0.000000 0.000000 0.000000 0.000000 
0.038913 88.346794 0.043811 -1.964390 8.582718 3.346292 1.680617 -15.436749 -1.787553 0.814203 5.636748 -0.712833 0.357411 3.276396 -0.886667 -3.538158 7.307915 -0.180954 6.553495 7.804157 -4.631416 -71.137383 28.576416 -25.601610 -9.909175 -3.013337 -2.705612 5.329508 -2.879659 7.904290 -9.420193 8.611505 -9.984620 52.123013 54.125370 42.164494 3.220027 -8.960099 5.754901 5.762524 -9.272761 -3.071715 7.106162 -4.929621 -7.547164 1.327360 -2.188666 -3.389263 -3.018760 9.214610 18.295635 0.000000 0.000000 0.000000 -5.678398 -5.601867 -6.971926 -0.454693 10.106831 -1.300459 0.000000 0.000000 0.000000 0.000000 0.000000 0.000000 
0.053698 88.346298 0.047330 -1.961618 8.562116 3.362778 1.693274 -15.429520 -1.784493 0.800837 5.640234 -0.711719 0.359610 3.273222 -0.888591 -3.533941 7.307965 -0.183351 6.554523 7.804119 -4.633781 -71.143120 28.576212 -25.610359 -9.910139 -3.007656 -2.720182 5.321037 -2.879155 7.832940 -9.420298 8.610728 -9.983087 52.131447 54.115105 42.144020 3.223295 -8.954606 5.756648 5.770607 -9.267785 -3.073375 7.096097 -4.910024 -7.558545 1.321305 -2.190671 -3.370156 -3.008333 9.213531 18.269896 0.000000 0.000000 0.000000 -5.691374 -5.569074 -6.994519 -0.486817 10.123080 -1.311778 0.000000 0.000000 0.000000 0.000000 0.000000 0.000000 
0.068701 88.345825 0.050817 -1.958774 8.541553 3.379941 1.705971 -15.422244 -1.781391 0.787403 5.643660 -0.710596 0.361865 3.269942 -0.890521 -3.529634 7.308057 -0.185798 6.555611 7.804043 -4.636176 -71.148933 28.576231 -25.619171 -9.910276 -3.002355 -2.733458 5.308914 -2.879261 7.759209 -9.420378 8.609905 -9.981581 52.139809 54.105091 42.123478 3.226406 -8.949251 5.758296 5.778795 -9.262932 -3.075095 7.085901 -4.890554 -7.570115 1.315212 -2.192620 -3.351067 -2.997891 9.212539 18.243664 0.000000 0.000000 0.000000 -5.704457 -5.536303 -7.017453 -0.518239 10.138712 -1.322810 0.000000 0.000000 0.000000 0.000000 0.000000 0.000000 
0.084033 88.345390 0.054250 -1.955839 8.521060 3.397199 1.718748 -15.414989 -1.778172 0.773868 5.647024 -0.709408 0.364134 3.266785 -0.892451 -3.525158 7.307823 -0.188376 6.556790 7.803947 -4.638605 -71.154900 28.576218 -25.627939 -9.909983 -2.997290 -2.745688 5.293983 -2.879727 7.684329 -9.420507 8.609091 -9.980040 52.148323 54.095203 42.102638 3.229489 -8.943954 5.759868 5.786945 -9.258152 -3.076917 7.075372 -4.871279 -7.581779 1.309164 -2.194428 -3.332150 -2.987415 9.211642 18.216988 0.000000 0.000000 0.000000 -5.717831 -5.503523 -7.040513 -0.548328 10.153259 -1.333317 0.000000 0.000000 0.000000 0.000000 0.000000 0.000000 
0.099799 88.345016 0.057607 -1.952751 8.500621 3.415059 1.731589 -15.407698 -1.774836 0.760225 5.650248 -0.708174 0.366431 3.263483 -0.894497 -3.520472 7.307648 -0.191010 6.557976 7.803833 -4.641017 -71.160873 28.576429 -25.636810 -9.909236 -2.992532 -2.756873 5.276780 -2.880570 7.609341 -9.420647 8.608229 -9.978615 52.156837 54.085640 42.081516 3.232464 -8.938783 5.761342 5.795214 -9.253493 -3.078886 7.064354 -4.852341 -7.593537 1.303271 -2.195986 -3.313636 -2.976930 9.210854 18.189829 0.000000 0.000000 0.000000 -5.731544 -5.470757 -7.064013 -0.576831 10.166471 -1.343197 0.000000 0.000000 0.000000 0.000000 0.000000 0.000000 
0.116109 88.344696 0.060875 -1.949473 8.480321 3.433564 1.744508 -15.400462 -1.771345 0.746473 5.653384 -0.706873 0.368815 3.260298 -0.896614 -3.515623 7.307011 -0.193746 6.559219 7.803724 -4.643510 -71.167000 28.576584 -25.645649 -9.908284 -2.987988 -2.767189 5.258012 -2.881541 7.535257 -9.420804 8.607355 -9.977135 52.165462 54.076160 42.059902 3.235455 -8.933690 5.762700 5.803490 -9.248919 -3.081046 7.052863 -4.833743 -7.605582 1.297265 -2.197397 -3.295625 -2.966364 9.210185 18.162357 0.000000 0.000000 0.000000 -5.745620 -5.438093 -7.088115 -0.603582 10.178147 -1.352381 0.000000 0.000000 0.000000 0.000000 0.000000 0.000000 
0.133067 88.344444 0.064037 -1.945987 8.460106 3.452644 1.757527 -15.393160 -1.767693 0.732540 5.656330 -0.705505 0.371312 3.257044 -0.898801 -3.510533 7.306178 -0.196633 6.560583 7.803557 -4.646052 -71.173332 28.576885 -25.654442 -9.907102 -2.983652 -2.776673 5.238060 -2.882652 7.462881 -9.420949 8.606457 -9.975708 52.174088 54.067024 42.037884 3.238365 -8.928778 5.763963 5.811875 -9.244516 -3.083410 7.040699 -4.815546 -7.617881 1.291213 -2.198594 -3.278063 -2.955497 9.209702 18.134411 0.000000 0.000000 0.000000 -5.760237 -5.405408 -7.112740 -0.628103 10.187931 -1.360689 0.000000 0.000000 0.000000 0.000000 0.000000 0.000000 
